<?xml version="1.0" standalone="no"?>
<!DOCTYPE svg PUBLIC "-//W3C//DTD SVG 20010904//EN"
 "http://www.w3.org/TR/2001/REC-SVG-20010904/DTD/svg10.dtd">
<svg version="1.0" xmlns="http://www.w3.org/2000/svg"
 width="816.000000pt" height="816.000000pt" viewBox="0 0 816.000000 816.000000"
 preserveAspectRatio="xMidYMid meet">
<metadata>
Created by potrace 1.14, written by Peter Selinger 2001-2017
</metadata>
<g transform="translate(0.000000,816.000000) scale(0.100000,-0.100000)"
fill="#000000" stroke="none">
<path d="M8 6729 c-7 -4 -7 -13 0 -26 8 -15 329 -814 479 -1193 14 -36 31 -78
39 -95 7 -16 29 -73 49 -125 21 -52 46 -114 56 -137 10 -24 19 -46 19 -51 0
-5 9 -27 20 -50 11 -22 20 -45 20 -50 0 -4 9 -27 20 -50 11 -22 20 -46 20 -52
0 -5 4 -18 9 -28 9 -17 23 -51 40 -94 10 -27 27 -69 41 -100 5 -13 19 -48 30
-78 11 -30 25 -66 31 -80 6 -14 17 -38 24 -55 38 -88 331 -834 335 -850 1 -5
7 -19 13 -30 6 -11 12 -22 13 -25 0 -3 4 -14 9 -25 13 -32 238 -598 341 -860
52 -132 100 -248 105 -259 6 -10 12 -26 14 -35 2 -9 20 -54 40 -101 20 -47 38
-92 40 -100 1 -8 11 -33 20 -55 10 -22 21 -49 25 -60 5 -11 15 -36 23 -55 8
-19 27 -66 41 -105 15 -38 33 -83 40 -100 7 -16 28 -68 46 -115 17 -47 38 -98
45 -115 26 -60 39 -90 40 -95 0 -3 18 -49 39 -102 l39 -98 458 0 457 0 27 68
c15 37 31 72 36 78 5 6 10 19 12 30 2 10 11 37 21 59 10 22 56 132 103 245 46
113 90 219 98 235 7 17 30 71 50 120 20 50 40 99 45 110 30 67 50 115 50 119
0 2 9 25 20 50 11 26 19 49 19 51 0 3 9 22 19 43 20 37 56 122 58 132 0 3 8
23 18 45 10 22 24 56 31 75 7 19 24 61 39 92 14 31 26 59 26 61 0 3 7 21 15
41 8 20 16 39 17 43 1 5 15 37 31 73 40 88 49 112 54 134 2 11 10 27 18 35 7
9 14 21 14 26 1 20 126 315 134 315 4 0 7 -5 7 -10 0 -6 9 -29 19 -53 11 -23
65 -152 121 -287 56 -135 109 -261 117 -280 26 -60 40 -92 78 -185 21 -49 43
-103 50 -120 8 -16 37 -86 66 -155 105 -252 161 -386 175 -414 8 -16 14 -33
14 -37 0 -5 11 -32 24 -61 13 -29 47 -109 76 -178 69 -164 72 -173 109 -258
17 -40 31 -79 31 -87 0 -8 5 -15 10 -15 6 0 10 -7 10 -15 0 -8 4 -23 10 -33 5
-9 16 -34 24 -54 l15 -38 458 0 458 0 36 93 c21 50 49 124 64 162 15 39 30 75
33 80 4 6 7 15 8 20 3 11 284 716 310 775 22 51 27 62 84 210 48 122 63 161
91 225 10 25 78 197 114 290 15 39 30 75 33 80 4 6 7 12 7 15 1 9 38 105 45
115 6 9 43 103 45 115 1 3 9 22 18 44 9 21 17 40 17 43 0 2 7 20 16 41 10 20
18 42 20 47 2 10 127 322 143 360 29 66 105 256 106 265 1 3 9 22 18 44 9 21
17 40 17 43 0 2 7 20 16 41 10 20 18 42 19 47 3 10 68 171 85 210 5 11 54 135
110 275 55 140 105 265 110 278 6 12 14 32 20 45 5 12 23 58 40 102 17 44 34
89 39 100 5 11 17 40 27 65 9 25 26 65 36 90 11 25 23 54 27 65 5 11 32 81 61
155 48 122 63 161 91 225 10 26 79 199 114 290 15 39 31 75 35 80 5 6 8 13 8
18 1 11 34 97 49 127 7 14 13 29 13 33 0 4 8 27 19 50 35 79 36 87 4 88 -15 0
-273 1 -572 1 l-544 1 -12 -24 c-7 -13 -11 -27 -9 -31 3 -5 0 -8 -5 -8 -6 0
-10 -3 -9 -7 0 -5 -1 -15 -4 -23 -3 -8 -27 -73 -53 -145 -84 -234 -126 -348
-172 -470 -25 -66 -46 -124 -47 -130 -1 -5 -5 -16 -9 -22 -5 -7 -6 -13 -2 -13
3 0 -1 -12 -8 -27 -8 -16 -27 -63 -41 -107 -15 -43 -32 -90 -38 -105 -6 -14
-12 -28 -12 -31 -2 -8 -47 -133 -56 -155 -13 -31 -77 -207 -126 -345 -24 -69
-48 -134 -54 -145 -5 -11 -20 -51 -34 -90 -54 -156 -264 -734 -276 -760 -9
-21 -72 -196 -141 -390 -21 -60 -43 -119 -48 -130 -5 -11 -14 -33 -19 -50 -23
-65 -164 -452 -176 -485 -8 -19 -28 -75 -46 -125 -17 -49 -35 -99 -40 -110 -5
-11 -30 -78 -55 -149 -25 -71 -49 -134 -52 -139 -6 -9 -46 87 -191 453 -44
113 -86 219 -93 235 -7 17 -13 33 -13 37 -1 3 -4 10 -9 14 -4 4 -7 16 -7 26 0
10 -4 18 -10 18 -5 0 -9 3 -8 8 3 7 -10 44 -37 107 -7 17 -43 107 -79 200 -37
94 -71 179 -76 190 -5 11 -19 45 -30 75 -12 30 -26 64 -30 75 -4 11 -18 45
-30 75 -11 30 -25 64 -30 75 -5 11 -19 46 -31 78 l-21 57 27 73 c15 39 33 86
40 102 13 30 48 126 51 135 0 3 5 16 11 30 6 14 30 77 53 140 24 63 48 126 53
140 6 14 11 30 13 35 5 20 87 231 105 272 11 24 19 46 19 51 0 8 53 151 70
187 5 11 32 83 61 160 28 77 63 169 76 205 14 36 27 74 30 85 3 11 9 25 13 30
4 6 17 39 29 75 13 36 27 74 32 85 15 35 249 658 249 665 0 3 -219 6 -487 6
-423 -1 -487 -3 -490 -16 -3 -8 -7 -22 -10 -30 -3 -8 -7 -19 -9 -25 -1 -5 -28
-82 -59 -170 -31 -88 -63 -180 -71 -205 -8 -25 -19 -54 -24 -65 -5 -11 -16
-42 -25 -70 -18 -56 -173 -502 -182 -525 -3 -8 -7 -19 -9 -25 -1 -5 -25 -75
-54 -155 -28 -80 -53 -152 -55 -160 -6 -23 -34 -102 -44 -125 -5 -11 -23 -62
-41 -114 -17 -52 -34 -99 -37 -104 -3 -5 -22 39 -42 99 -21 60 -43 119 -49
132 -7 12 -10 22 -7 22 3 0 -4 24 -16 53 -11 28 -22 59 -24 67 -3 12 -144 421
-168 490 -33 91 -49 137 -52 150 -2 8 -29 87 -60 175 -31 88 -58 165 -59 170
-2 6 -5 17 -9 25 -3 8 -28 85 -57 170 -29 85 -60 173 -70 195 l-18 40 -486 1
c-341 0 -486 -3 -486 -10 0 -6 7 -24 15 -40 8 -15 15 -36 15 -45 0 -9 4 -21 9
-26 4 -6 18 -37 29 -70 40 -116 65 -180 73 -190 5 -5 9 -17 9 -27 0 -10 4 -26
10 -36 8 -14 49 -121 96 -252 7 -19 85 -228 174 -465 89 -236 163 -434 164
-440 2 -5 8 -21 13 -35 6 -14 41 -106 77 -205 37 -99 80 -214 96 -255 66 -172
130 -347 135 -371 4 -17 -1 -43 -14 -72 -12 -25 -21 -49 -21 -52 0 -4 -6 -21
-14 -38 -8 -18 -28 -70 -46 -117 -18 -47 -38 -99 -46 -117 -8 -17 -14 -34 -14
-38 0 -4 -6 -21 -14 -38 -8 -18 -47 -115 -86 -217 -39 -102 -78 -199 -85 -217
-8 -17 -15 -35 -15 -40 0 -4 -14 -42 -31 -83 -45 -111 -44 -108 -79 -200 -17
-47 -36 -94 -41 -105 -5 -11 -29 -74 -54 -140 -25 -66 -52 -133 -59 -150 -7
-16 -22 -52 -32 -79 l-18 -48 -12 38 c-6 22 -26 77 -44 124 -17 47 -42 114
-55 150 -29 81 -124 340 -132 360 -3 8 -7 17 -8 20 -1 3 -5 14 -9 25 -4 11
-18 49 -31 85 -12 36 -26 74 -31 85 -4 11 -8 22 -9 25 -1 3 -5 14 -9 25 -4 11
-17 45 -28 75 -11 30 -23 64 -28 75 -10 25 -48 132 -90 250 -18 50 -36 99 -41
110 -5 11 -40 108 -79 215 -39 107 -74 204 -79 215 -5 11 -32 85 -61 165 -28
80 -55 154 -60 165 -5 11 -30 79 -55 150 -26 72 -62 171 -80 220 -19 50 -52
142 -75 205 -23 63 -46 124 -50 135 -5 11 -20 52 -34 90 -14 39 -34 94 -45
123 -11 29 -20 54 -20 55 0 4 -13 42 -21 62 -21 52 -76 202 -202 550 -28 77
-56 154 -63 170 -7 17 -26 68 -41 115 -16 47 -32 87 -35 90 -3 3 -9 17 -13 33
-6 25 -11 27 -54 28 -361 4 -1076 3 -1084 -2z"/>
</g>
</svg>
